# xmcd
#
# Track frame offsets: 
#        150
#        24697
#        36350
#        59747
#        75657
#        87927
#        126910
#        149092
#        166492
#        185652
#        209720
#        234654
#        249989
#        267081
#        287779
#        299789
#        316761
#        331864
#
# Disc length: 4626 seconds
#
# Revision: 0
# Processed by: cddbd v1.5.1PL0 Copyright (c) Steve Scherf et al.
# Submitted via: ExactAudioCopy v0.95a5
#
DISCID=21121012
DTITLE=B.B. King - His definitive greatest hits CD1
DYEAR=1900
DGENRE=Blues
TTITLE0=The thrill is gone
TTITLE1=Paying the cost to be boss
TTITLE2=Don't answer the door
TTITLE3=I like to live the love
TTITLE4=How blue can you get
TTITLE5=Why I sing the blues
TTITLE6=Chains and things
TTITLE7=To know you is to love you
TTITLE8=When love comes to town (with U2)
TTITLE9=Play'n with my friends (with Robert Cray)
TTITLE10=Never make your move too soon
TTITLE11=Better not look down
TTITLE12=There must be a better world somewhere
TTITLE13=Hummingbird
TTITLE14=Everyday I have the blues
TTITLE15=Sweet little angel
TTITLE16=Exactly like you
TTITLE17=Word of honor
EXTD=
EXTT0=
EXTT1=
EXTT2=
EXTT3=
EXTT4=
EXTT5=
EXTT6=
EXTT7=
EXTT8=
EXTT9=
EXTT10=
EXTT11=
EXTT12=
EXTT13=
EXTT14=
EXTT15=
EXTT16=
EXTT17=
PLAYORDER=
